<?xml version="1.0" encoding="UTF-8"?>
<svg id="svg1" xmlns="http://www.w3.org/2000/svg" version="1.1" xmlns:svg="http://www.w3.org/2000/svg" viewBox="0 0 505.97 488.71">
  <!-- Generator: Adobe Illustrator 29.8.1, SVG Export Plug-In . SVG Version: 2.1.1 Build 2)  -->
  <defs>
    <style>
      .st0 {
        fill: #fff;
        stroke: #fff;
        stroke-miterlimit: 10;
      }
    </style>
  </defs>
  <g id="layer1">
    <path id="path7" class="st0" d="M256.88,348.84c-3.91-5.63-12.77-18.44-17.75-25.66-1.56-2.26-3.62-5.23-4.58-6.59s-4.42-6.37-7.69-11.12-6.06-8.64-6.19-8.64c-.13,0-18.64,0-41.14-.01-25,0-40.91-.15-40.91-.37,0-.31,2.37-3.77,9.16-13.41.81-1.15,2.97-4.26,4.79-6.9,1.82-2.64,5.9-8.51,9.06-13.04,3.16-4.53,8.73-12.55,12.39-17.82s13.23-19.06,21.28-30.66c35.24-50.74,36.01-51.84,42.81-61.59.78-1.11,6.07-8.75,11.76-16.97,5.69-8.22,10.47-15.09,10.64-15.27.31-.34,1.65,1.36,5.85,7.41,7.94,11.46,29.07,41.85,33.83,48.67,1.55,2.21,4.48,6.44,6.52,9.39,2.04,2.95,4.98,7.18,6.53,9.39,2.9,4.16,10.22,14.7,14.63,21.08,1.38,2,5.88,8.47,10,14.37,8.99,12.89,18.48,26.53,22.22,31.91,1.5,2.16,4.87,6.99,7.5,10.73,2.62,3.74,5.89,8.43,7.27,10.43s3.88,5.62,5.57,8.05l3.07,4.41-41.28.11-41.28.11-4.13,6.02c-2.27,3.31-7.36,10.68-11.29,16.37-3.94,5.69-8.08,11.69-9.21,13.33s-3.01,4.34-4.18,6.01c-1.17,1.66-3.06,4.38-4.19,6.02-4.65,6.74-6.65,9.51-6.93,9.6-.16.05-2-2.36-4.08-5.36h0ZM267.87,319.62c3.7-5.38,8.18-11.89,9.96-14.47,5.27-7.63,17.26-25.1,28.2-41.09,5.62-8.22,10.44-15.17,10.69-15.43.37-.39.7-.16,1.65,1.15,2.7,3.74,13.38,19.3,13.56,19.75.15.37-1.29.48-6.42.48h-6.6l-4.11,6.04c-2.26,3.32-4.2,6.25-4.31,6.51-.16.38,4.58.48,22.9.48s23.06-.1,22.91-.49c-.15-.39-10.76-15.76-21.36-30.94-1.1-1.58-3.98-5.72-6.4-9.2-2.42-3.48-6.21-8.91-8.42-12.07-2.21-3.16-4.92-7.08-6.02-8.71l-2-2.96h-35.2s-35.2.02-35.2.02l-4.51,6.59c-2.48,3.63-5.54,8.06-6.79,9.85s-4.17,6.02-6.49,9.39c-2.32,3.37-5.05,7.3-6.07,8.72-1.02,1.42-1.86,2.67-1.86,2.78s14.34.19,31.86.19h31.86l3.54-5.28c1.95-2.91,3.54-5.41,3.54-5.56s-10.79-.27-23.98-.27-23.98-.13-23.97-.29c0-.16,1.98-3.13,4.39-6.61l4.37-6.32,32.55-.1c17.91-.05,32.55,0,32.55.14,0,.23-4.68,7.17-9.93,14.71-3.57,5.13-13.5,19.5-17.87,25.87-2.03,2.95-6.36,9.25-9.63,13.99-3.27,4.74-7.8,11.33-10.07,14.64-2.27,3.31-4.25,5.98-4.4,5.94-.31-.09-4.54-6.05-11.83-16.65l-5.07-7.38h8.58s8.58-.01,8.58-.01l4.37-6.41,4.37-6.41-40.2-.19-40.2-.19,5.42-7.86c2.98-4.32,7.11-10.27,9.17-13.22,8.88-12.7,15.57-22.29,19.92-28.57,25.38-36.63,36.73-52.81,36.95-52.68.24.15,2.49,3.34,12.79,18.19,2.11,3.05,3.84,5.68,3.84,5.84s-3.82.3-8.5.3h-8.5l-1.48,2.2c-.81,1.21-2.82,4.14-4.46,6.5-1.64,2.36-2.98,4.39-2.98,4.5s11.4.21,25.34.21,25.34-.1,25.34-.22c0-.24-5.47-8.26-13.04-19.13-2.64-3.79-10-14.4-16.36-23.56-6.35-9.16-11.72-16.71-11.91-16.78-.31-.1-2.74,3.25-10.53,14.49-.96,1.38-4.53,6.52-7.93,11.42s-8.45,12.17-11.22,16.17c-4.62,6.67-25.3,36.44-31.74,45.7-17.16,24.65-34.21,49.32-34.21,49.5,0,.12,14.23.22,31.62.22h31.62s9.45,13.7,9.45,13.7c15.36,22.26,22.64,32.65,22.89,32.65.13,0,3.26-4.39,6.96-9.77h0Z"/>
  </g>
</svg>